<svg id="Avvio_Reply" data-name="Avvio Reply" xmlns="http://www.w3.org/2000/svg" viewBox="0 0 623.33 200.33"><defs><style>.cls-1{fill:#ff9619;}.cls-2{fill:#004149;}.cls-3{fill:none;}</style></defs><title>Avvio ReplyLOGORGB</title><g id="Logo"><g id="RUNNING_MAN" data-name="RUNNING MAN"><path class="cls-1" d="M152.29,5.67a16.4,16.4,0,1,0,16.39,16.42A16.39,16.39,0,0,0,152.29,5.67Z"/><path class="cls-1" d="M116.35,74.64l20.47-27A4.17,4.17,0,0,0,137,43l-8.7-14a4.17,4.17,0,0,0-3.57-2l-37.53.26h0l-20.58,0a1.71,1.71,0,0,0-1.07,3L71.35,35a6.32,6.32,0,0,0,2.8,1.29L109.89,43,65.68,90.52,7.48,98.78A2.52,2.52,0,0,0,6,103l5.68,6.1A5.83,5.83,0,0,0,16,110.94L72.22,110a11.7,11.7,0,0,0,5.89-1.71l13.46-8.2L120,122.66a5.53,5.53,0,0,1,2,3.59l5.41,39.82a3.79,3.79,0,0,0,3.75,3.28h2.89a3.79,3.79,0,0,0,3.79-3.77l.17-44.19a10.56,10.56,0,0,0-2.08-6.33L111.16,81.65Z"/></g><path class="cls-2" d="M257.79,131,238.42,96H223v35H202V32.38h46.13c20.55,0,33.27,13.45,33.27,31.79,0,17.3-11.09,26.76-21.73,29.28L282,131Zm2.07-67c0-8.13-6.36-13.16-14.64-13.16H223V77.47h22.18C253.5,77.47,259.86,72.45,259.86,64Z"/><path class="cls-2" d="M297.11,131V32.38H366.9V50.86H318.11v20.7h47.76V90H318.11v22.47H366.9V131Z"/><path class="cls-2" d="M383.31,131V32.38h46.13c21.44,0,33.12,14.49,33.12,31.79s-11.83,31.64-33.12,31.64H404.3V131Zm57.81-66.83c0-8.28-6.36-13.31-14.64-13.31H404.3V77.33h22.18C434.76,77.33,441.12,72.3,441.12,64.17Z"/><path class="cls-2" d="M474.83,131V32.38H496v80.14h41.7V131Z"/><path class="cls-2" d="M560.58,131V90.63L522.73,32.38h24l24.4,39.48,24.4-39.48h23.81l-37.7,58.26V131Z"/><path class="cls-1" d="M230.85,196.64l-3-7.95H209l-3,7.95h-8.19l16.14-41.09h9L239,196.64Zm-12.44-33.88L211,182.35H225.8Z"/><path class="cls-1" d="M252.29,196.64l-16.14-41.09h8.19l12.44,33.2,12.44-33.2h8.19l-16.14,41.09Z"/><path class="cls-1" d="M293.75,196.64l-16.14-41.09h8.19l12.44,33.2,12.44-33.2h8.19l-16.14,41.09Z"/><path class="cls-1" d="M323.32,196.64V155.56h7.21v41.09Z"/><path class="cls-1" d="M337.49,176.13c0-12.26,8.69-21.25,21-21.25s21,9,21,21.25-8.75,21.25-21,21.25S337.49,188.39,337.49,176.13Zm34.62,0c0-8.5-5.36-14.85-13.61-14.85s-13.61,6.34-13.61,14.85S350.18,191,358.49,191,372.11,184.57,372.11,176.13Z"/></g><rect class="cls-3" width="623.33" height="200.33"/></svg>